# xmcd
#
# Track frame offsets:
#	150
#	4574
#	30787
#	87920
#	94390
#	125222
#	150881
#
# Disc length: 2273 seconds
#
# Revision: 0
# Processed by: cddbd v1.5.2PL0 Copyright (c) Steve Scherf et al.
# Submitted via: EasyCDDAExtractor 9.0.0.1
#
DISCID=4208df07
DTITLE=Black Sabbath - International Amphitheater Chicago 23-08-78 Disc 2 Mast
DTITLE=er
DYEAR=1978
DGENRE=Hard Rock
TTITLE0=Rock'n'Roll Doctor Cont
TTITLE1=Drum Solo
TTITLE2=Guitar Solo
TTITLE3=Iron Man
TTITLE4=Fairies Wear Boots
TTITLE5=Children of the Grave 
TTITLE6=Paranoid
EXTD=
EXTT0=
EXTT1=
EXTT2=
EXTT3=
EXTT4=
EXTT5=
EXTT6=
PLAYORDER=
